HIERARCHY
ROOT Hips
{
	OFFSET 0.000000 0.000000 0.000000
	CHANNELS 6 Xposition Yposition Zposition Zrotation Yrotation Xrotation 
	JOINT LHipJoint
	{
		OFFSET 0.000000 0.000000 0.000000
		CHANNELS 3 Zrotation Yrotation Xrotation
		JOINT LeftUpLeg
		{
			OFFSET 1.363060 -1.794630 0.839290
			CHANNELS 3 Zrotation Yrotation Xrotation
			JOINT LeftLeg
			{
				OFFSET 2.448110 -6.726130 0.000000
				CHANNELS 3 Zrotation Yrotation Xrotation
				JOINT LeftFoot
				{
					OFFSET 2.562200 -7.039590 0.000000
					CHANNELS 3 Zrotation Yrotation Xrotation
					JOINT LeftToeBase
					{
						OFFSET 0.157640 -0.433110 2.322550
						CHANNELS 3 Zrotation Yrotation Xrotation
						End Site
						{
							OFFSET 0.000000 0.000000 0.000000
						}
					}
				}
			}
		}
	}
	JOINT RHipJoint
	{
		OFFSET 0.000000 0.000000 0.000000
		CHANNELS 3 Zrotation Yrotation Xrotation
		JOINT RightUpLeg
		{
			OFFSET -1.305520 -1.794630 0.839290
			CHANNELS 3 Zrotation Yrotation Xrotation
			JOINT RightLeg
			{
				OFFSET -2.542530 -6.985550 0.000000
				CHANNELS 3 Zrotation Yrotation Xrotation
				JOINT RightFoot
				{
					OFFSET -2.568260 -7.056230 0.000000
					CHANNELS 3 Zrotation Yrotation Xrotation
					JOINT RightToeBase
					{
						OFFSET -0.164730 -0.452590 2.363150
						CHANNELS 3 Zrotation Yrotation Xrotation
						End Site
						{
							OFFSET 0.000000 0.000000 0.000000
						}
					}
				}
			}
		}
	}
	JOINT LowerBack
	{
		OFFSET 0.000000 0.000000 0.000000
		CHANNELS 3 Zrotation Yrotation Xrotation
		JOINT Spine
		{
			OFFSET 0.028270 2.035590 -0.193380
			CHANNELS 3 Zrotation Yrotation Xrotation
			JOINT Spine1
			{
				OFFSET 0.056720 2.048850 -0.042750
				CHANNELS 3 Zrotation Yrotation Xrotation
				JOINT Neck
				{
					OFFSET 0.000000 0.000000 0.000000
					CHANNELS 3 Zrotation Yrotation Xrotation
					JOINT Neck1
					{
						OFFSET -0.054170 1.746240 0.172020
						CHANNELS 3 Zrotation Yrotation Xrotation
						JOINT Head
						{
							OFFSET 0.104070 1.761360 -0.123970
							CHANNELS 3 Zrotation Yrotation Xrotation
							End Site
							{
								OFFSET 0.000000 0.000000 0.000000
							}
						}
					}
				}
				JOINT LeftShoulder
				{
					OFFSET 0.000000 0.000000 0.000000
					CHANNELS 3 Zrotation Yrotation Xrotation
					JOINT LeftArm
					{
						OFFSET 3.362410 1.200890 -0.311210
						CHANNELS 3 Zrotation Yrotation Xrotation
						JOINT LeftForeArm
						{
							OFFSET 4.983000 -0.000000 -0.000000
							CHANNELS 3 Zrotation Yrotation Xrotation
							JOINT LeftHand
							{
								OFFSET 3.483560 -0.000000 -0.000000
								CHANNELS 3 Zrotation Yrotation Xrotation
								JOINT LeftFingerBase
								{
									OFFSET 0.000000 0.000000 0.000000
									CHANNELS 3 Zrotation Yrotation Xrotation
									JOINT LeftHandIndex1
									{
										OFFSET 0.715260 -0.000000 -0.000000
										CHANNELS 3 Zrotation Yrotation Xrotation
										End Site
										{
											OFFSET 0.000000 0.000000 0.000000
										}
									}
								}
								JOINT LThumb
								{
									OFFSET 0.000000 0.000000 0.000000
									CHANNELS 3 Zrotation Yrotation Xrotation
									End Site
									{
										OFFSET 0.000000 0.000000 0.000000
									}
								}
							}
						}
					}
				}
				JOINT RightShoulder
				{
					OFFSET 0.000000 0.000000 0.000000
					CHANNELS 3 Zrotation Yrotation Xrotation
					JOINT RightArm
					{
						OFFSET -3.136600 1.374050 -0.404650
						CHANNELS 3 Zrotation Yrotation Xrotation
						JOINT RightForeArm
						{
							OFFSET -5.241900 -0.000000 -0.000000
							CHANNELS 3 Zrotation Yrotation Xrotation
							JOINT RightHand
							{
								OFFSET -3.444170 -0.000000 -0.000000
								CHANNELS 3 Zrotation Yrotation Xrotation
								JOINT RightFingerBase
								{
									OFFSET 0.000000 0.000000 0.000000
									CHANNELS 3 Zrotation Yrotation Xrotation
									JOINT RightHandIndex1
									{
										OFFSET -0.622530 -0.000000 -0.000000
										CHANNELS 3 Zrotation Yrotation Xrotation
										End Site
										{
											OFFSET 0.000000 0.000000 0.000000
										}
									}
								}
								JOINT RThumb
								{
									OFFSET 0.000000 0.000000 0.000000
									CHANNELS 3 Zrotation Yrotation Xrotation
									End Site
									{
										OFFSET 0.000000 0.000000 0.000000
									}
								}
							}
						}
					}
				}
			}
		}
	}
}
MOTION
Frames: 6
Frame Time: 0.041667
-3.070464 16.750404 1.299771 143.599356 89.284666 153.268813 -9.845209 0.142551 3.579266 -7.082684 -5.086352 -33.096111 -1.941566 -0.154724 7.621930 0.309536 3.318501 12.868285 1.559800 0.000000 -33.118100 9.562436 -3.417697 -1.141485 6.188638 -2.809455 7.717840 1.373085 -2.031557 24.455951 -0.388915 -0.896551 -1.113989 -0.283300 -0.000000 -77.435700 -1.738927 3.934542 -2.700872 -1.581725 3.927959 -3.533188 -5.306039 3.863751 0.274455 15.482629 -6.346039 -5.830747 0.000000 0.000000 0.000000 0.000000 0.000000 0.000000 -7.095706 9.159528 0.749626 -65.012751 7.092923 -16.016777 -4.202457 -8.808292 0.010263 2.470516 -4.700355 -0.103978 -0.095001 -0.056682 -0.000000 0.000000 0.000000 0.000000 0.000000 0.000000 0.000000 17.949189 -1.097701 1.481963 56.412835 17.243112 13.187321 2.196187 44.938241 -0.015575 -6.190803 -0.340797 0.011185 0.130326 -0.157275 0.000000 0.000000 0.000000 0.000000 0.000000 0.000000 0.000000 
-2.887594 16.778226 1.273432 129.564608 89.086942 139.270458 -9.595910 0.320972 3.655962 -7.596205 -5.601944 -32.886601 -1.962802 -0.108652 8.514537 0.330996 3.498812 12.507436 1.606100 -0.000000 -32.048800 9.973483 -3.443721 -1.120649 5.313919 -3.138201 6.489561 1.045711 -2.273770 27.064049 -0.362142 -0.753067 1.136459 -0.288000 -0.000000 -78.506700 -2.112419 3.881348 -2.837783 -1.666664 3.900011 -3.572602 -5.343362 3.832607 0.269264 15.605152 -6.407757 -5.834291 0.000000 0.000000 0.000000 0.000000 0.000000 0.000000 -7.011354 8.964528 0.719830 -65.140285 6.680769 -16.029528 -4.203099 -8.553008 0.010161 2.604962 -4.672539 -0.108776 -0.093749 -0.054661 -0.000000 0.000000 0.000000 0.000000 0.000000 0.000000 0.000000 18.143931 -1.255961 1.476210 57.303439 16.590077 13.049734 2.272308 43.286420 -0.015170 -6.312958 -0.322009 0.010757 0.131168 -0.150388 0.000000 0.000000 0.000000 0.000000 0.000000 0.000000 0.000000 
-2.709571 16.806888 1.245081 121.790041 88.779933 131.534856 -9.428119 0.450757 3.719419 -8.116776 -6.085994 -32.623029 -1.984245 -0.071923 9.351337 0.357752 3.705868 11.974217 1.648600 -0.000000 -30.927500 10.311424 -3.467019 -1.108286 4.479176 -3.499134 5.128168 0.721238 -2.503725 29.802930 -0.371565 -0.652366 3.490792 -0.268300 -0.000000 -78.479500 -2.494999 3.810511 -2.945548 -1.749168 3.856297 -3.605677 -5.365952 3.785204 0.262093 15.670991 -6.452189 -5.832730 0.000000 0.000000 0.000000 0.000000 0.000000 0.000000 -6.955420 8.733805 0.694079 -65.326987 6.210028 -16.024123 -4.197463 -8.323558 0.009993 2.717398 -4.643754 -0.112572 -0.092304 -0.052173 -0.000000 0.000000 0.000000 0.000000 0.000000 0.000000 0.000000 18.246934 -1.407479 1.472174 58.223178 15.937654 12.831136 2.344141 41.530146 -0.014845 -6.456829 -0.331637 0.011822 0.131699 -0.143314 0.000000 0.000000 0.000000 0.000000 0.000000 0.000000 0.000000 
-2.536557 16.835964 1.214138 117.085961 88.475345 126.874772 -9.313337 0.551762 3.767585 -8.604969 -6.499815 -32.310510 -2.003459 -0.043413 10.115484 0.389135 3.921560 11.294962 1.679500 -0.000000 -29.793300 10.590251 -3.469637 -1.099925 3.739260 -3.843972 3.657122 0.402091 -2.708560 32.640804 -0.426810 -0.675357 5.851273 -0.247100 0.000000 -77.245800 -2.824110 3.744418 -3.026181 -1.818219 3.814355 -3.632254 -5.377156 3.739802 0.253834 15.678278 -6.472750 -5.826487 0.000000 0.000000 0.000000 0.000000 0.000000 0.000000 -6.941548 8.489671 0.671413 -65.570951 5.675880 -15.971153 -4.183167 -8.130958 0.009754 2.808858 -4.613131 -0.115468 -0.090532 -0.049348 -0.000000 0.000000 0.000000 0.000000 0.000000 0.000000 0.000000 18.257376 -1.533333 1.473003 59.152131 15.289354 12.536949 2.412694 39.691999 -0.014577 -6.609034 -0.372964 0.014881 0.131999 -0.136134 0.000000 0.000000 0.000000 0.000000 0.000000 0.000000 0.000000 
-2.368940 16.865121 1.181157 113.548266 88.199911 123.379910 -9.230395 0.632542 3.799509 -9.061938 -6.842795 -31.933060 -2.022489 -0.025612 10.771196 0.424801 4.151677 10.517935 1.702300 0.000000 -28.664600 10.828694 -3.445112 -1.096034 3.091614 -4.163173 2.091660 0.095955 -2.885454 35.553672 -0.529422 -0.881181 8.097936 -0.256100 0.000000 -74.826100 -3.094228 3.687844 -3.078509 -1.872809 3.778162 -3.652722 -5.379855 3.700385 0.242951 15.639506 -6.467923 -5.815523 0.000000 0.000000 0.000000 0.000000 0.000000 0.000000 -6.961207 8.230739 0.652543 -65.870993 5.083303 -15.888423 -4.161025 -7.978934 0.009457 2.871531 -4.588101 -0.117362 -0.088445 -0.046220 -0.000000 0.000000 0.000000 0.000000 0.000000 0.000000 0.000000 18.197418 -1.629377 1.481947 60.069335 14.650568 12.180662 2.478302 37.798842 -0.014346 -6.753898 -0.451773 0.020334 0.132046 -0.128930 0.000000 0.000000 0.000000 0.000000 0.000000 0.000000 0.000000 
-2.206506 16.894089 1.146430 110.382125 87.967250 120.256174 -9.171989 0.696822 3.813711 -9.485308 -7.103622 -31.489356 -2.042397 -0.019154 11.302652 0.462627 4.383369 9.683427 1.714100 0.000000 -27.561900 11.032073 -3.393203 -1.095568 2.544982 -4.440890 0.448845 -0.188972 -3.036223 38.513344 -0.677358 -1.339305 10.115003 -0.338900 0.000000 -71.364000 -3.301175 3.642562 -3.103131 -1.912183 3.748862 -3.667045 -5.376259 3.668072 0.230542 15.564306 -6.434969 -5.800908 0.000000 0.000000 0.000000 0.000000 0.000000 0.000000 -7.012214 7.970823 0.637421 -66.219811 4.430342 -15.736397 -4.130764 -7.882688 0.009103 2.908736 -4.566234 -0.118256 -0.086025 -0.042856 -0.000000 0.000000 0.000000 0.000000 0.000000 0.000000 0.000000 18.084122 -1.690887 1.499664 60.957578 14.024120 11.778021 2.541391 35.878750 -0.014130 -6.874552 -0.570422 0.028384 0.131806 -0.121760 0.000000 0.000000 0.000000 0.000000 0.000000 0.000000 0.000000 
